<svg width="131" height="23" viewBox="0 0 131 23" fill="none" xmlns="http://www.w3.org/2000/svg">
<g clip-path="url(#clip0_1_89)">
<path d="M20.5966 8.91256C20.539 8.74274 20.4329 8.59353 20.2914 8.48335C20.1499 8.37316 19.9792 8.30681 19.8005 8.29251L14.5713 7.877L12.3085 2.86798C12.2364 2.70665 12.1192 2.56963 11.971 2.47344C11.8228 2.37726 11.6499 2.32602 11.4732 2.32593C11.2965 2.32583 11.1236 2.37687 10.9752 2.4729C10.8269 2.56892 10.7095 2.70582 10.6373 2.86707L8.37449 7.877L3.14533 8.29251C2.96964 8.30642 2.80168 8.37066 2.66154 8.47754C2.52141 8.58442 2.41503 8.7294 2.35513 8.89516C2.29524 9.06091 2.28436 9.24041 2.32381 9.41218C2.36326 9.58395 2.45136 9.74072 2.57757 9.86373L6.44187 13.6308L5.07519 19.5488C5.0337 19.7279 5.047 19.9154 5.11337 20.0869C5.17974 20.2584 5.29612 20.4059 5.44741 20.5105C5.5987 20.615 5.77791 20.6716 5.96178 20.673C6.14565 20.6744 6.3257 20.6205 6.47856 20.5183L11.4729 17.1888L16.4672 20.5183C16.6235 20.6221 16.8077 20.6755 16.9952 20.6713C17.1827 20.6672 17.3645 20.6058 17.516 20.4953C17.6675 20.3848 17.7816 20.2306 17.8429 20.0533C17.9041 19.8761 17.9097 19.6843 17.8587 19.5039L16.1811 13.6336L20.3416 9.88941C20.6141 9.64359 20.714 9.26019 20.5966 8.91256V8.91256Z" fill="#F3CD03"/>
<path d="M47.6115 8.91256C47.5539 8.74274 47.4478 8.59353 47.3063 8.48335C47.1648 8.37316 46.9941 8.30681 46.8154 8.29251L41.5862 7.877L39.3234 2.86798C39.2513 2.70665 39.1341 2.56963 38.9859 2.47344C38.8377 2.37726 38.6648 2.32602 38.4881 2.32593C38.3114 2.32583 38.1385 2.37687 37.9901 2.4729C37.8418 2.56892 37.7244 2.70582 37.6522 2.86707L35.3894 7.877L30.1602 8.29251C29.9845 8.30642 29.8166 8.37066 29.6764 8.47754C29.5363 8.58442 29.4299 8.7294 29.37 8.89516C29.3101 9.06091 29.2993 9.24041 29.3387 9.41218C29.3781 9.58395 29.4662 9.74072 29.5925 9.86373L33.4568 13.6308L32.0901 19.5488C32.0486 19.7279 32.0619 19.9154 32.1283 20.0869C32.1946 20.2584 32.311 20.4059 32.4623 20.5105C32.6136 20.615 32.7928 20.6716 32.9767 20.673C33.1605 20.6744 33.3406 20.6205 33.4935 20.5183L38.4878 17.1888L43.4821 20.5183C43.6384 20.6221 43.8226 20.6755 44.0101 20.6713C44.1976 20.6672 44.3794 20.6058 44.5309 20.4953C44.6824 20.3848 44.7965 20.2306 44.8578 20.0533C44.919 19.8761 44.9246 19.6843 44.8736 19.5039L43.196 13.6336L47.3565 9.88941C47.629 9.64359 47.7289 9.26019 47.6115 8.91256Z" fill="#F3CD03"/>
<path d="M74.6228 8.91256C74.5651 8.74274 74.459 8.59353 74.3175 8.48335C74.176 8.37316 74.0054 8.30681 73.8266 8.29251L68.5974 7.877L66.3346 2.86798C66.2626 2.70665 66.1453 2.56963 65.9971 2.47344C65.8489 2.37726 65.676 2.32602 65.4993 2.32593C65.3226 2.32583 65.1497 2.37687 65.0014 2.4729C64.853 2.56892 64.7357 2.70582 64.6634 2.86707L62.4006 7.877L57.1715 8.29251C56.9958 8.30642 56.8278 8.37066 56.6877 8.47754C56.5475 8.58442 56.4411 8.7294 56.3813 8.89516C56.3214 9.06091 56.3105 9.24041 56.3499 9.41218C56.3894 9.58395 56.4775 9.74072 56.6037 9.86373L60.468 13.6308L59.1013 19.5488C59.0598 19.7279 59.0731 19.9154 59.1395 20.0869C59.2059 20.2584 59.3222 20.4059 59.4735 20.5105C59.6248 20.615 59.804 20.6716 59.9879 20.673C60.1718 20.6744 60.3518 20.6205 60.5047 20.5183L65.499 17.1888L70.4934 20.5183C70.6496 20.6221 70.8339 20.6755 71.0214 20.6713C71.2088 20.6672 71.3906 20.6058 71.5421 20.4953C71.6937 20.3848 71.8077 20.2306 71.869 20.0533C71.9303 19.8761 71.9358 19.6843 71.8848 19.5039L70.2072 13.6336L74.3678 9.88941C74.6402 9.64359 74.7402 9.26019 74.6228 8.91256Z" fill="#F3CD03"/>
<path d="M101.636 8.91256C101.579 8.74274 101.473 8.59353 101.331 8.48335C101.19 8.37316 101.019 8.30681 100.84 8.29251L95.6111 7.877L93.3483 2.86798C93.2762 2.70665 93.159 2.56963 93.0108 2.47344C92.8626 2.37726 92.6897 2.32602 92.513 2.32593C92.3363 2.32583 92.1634 2.37687 92.015 2.4729C91.8667 2.56892 91.7493 2.70582 91.6771 2.86707L89.4143 7.877L84.1851 8.29251C84.0094 8.30642 83.8415 8.37066 83.7013 8.47754C83.5612 8.58442 83.4548 8.7294 83.3949 8.89516C83.335 9.06091 83.3242 9.24041 83.3636 9.41218C83.4031 9.58395 83.4912 9.74072 83.6174 9.86373L87.4817 13.6308L86.115 19.5488C86.0735 19.7279 86.0868 19.9154 86.1532 20.0869C86.2195 20.2584 86.3359 20.4059 86.4872 20.5105C86.6385 20.615 86.8177 20.6716 87.0016 20.673C87.1854 20.6744 87.3655 20.6205 87.5184 20.5183L92.5127 17.1888L97.507 20.5183C97.6633 20.6221 97.8475 20.6755 98.035 20.6713C98.2225 20.6672 98.4043 20.6058 98.5558 20.4953C98.7073 20.3848 98.8214 20.2306 98.8827 20.0533C98.9439 19.8761 98.9495 19.6843 98.8985 19.5039L97.2209 13.6336L101.381 9.88941C101.654 9.64359 101.754 9.26019 101.636 8.91256Z" fill="#F3CD03"/>
<path d="M114.497 13.6308L113.131 19.5488C113.088 19.728 113.101 19.9158 113.167 20.0877C113.233 20.2596 113.35 20.4075 113.501 20.5122C113.653 20.6169 113.832 20.6735 114.016 20.6746C114.2 20.6757 114.381 20.6212 114.533 20.5183L119.528 17.1888L124.522 20.5183C124.678 20.6221 124.862 20.6755 125.05 20.6714C125.237 20.6673 125.419 20.6058 125.571 20.4953C125.722 20.3849 125.836 20.2306 125.898 20.0534C125.959 19.8761 125.964 19.6844 125.913 19.5039L124.236 13.6336L128.396 9.88944C128.53 9.76946 128.625 9.61304 128.67 9.43955C128.715 9.26605 128.709 9.08308 128.651 8.91327C128.594 8.74345 128.488 8.59424 128.346 8.48408C128.205 8.37392 128.034 8.30764 127.855 8.29345L122.626 7.87703L120.363 2.86801C120.291 2.70672 120.174 2.56976 120.025 2.47366C119.877 2.37755 119.704 2.32642 119.528 2.32642C119.351 2.32642 119.178 2.37755 119.03 2.47366C118.881 2.56976 118.764 2.70672 118.692 2.86801L116.429 7.87703L111.2 8.29254C111.024 8.30645 110.856 8.37069 110.716 8.47757C110.576 8.58445 110.47 8.72943 110.41 8.89518C110.35 9.06094 110.339 9.24044 110.378 9.41221C110.418 9.58398 110.506 9.74074 110.632 9.86376L114.497 13.6308ZM117.114 9.66288C117.278 9.64998 117.435 9.59328 117.57 9.49871C117.704 9.40414 117.81 9.27519 117.877 9.12538L119.528 5.47387L121.178 9.12538C121.245 9.27519 121.351 9.40414 121.486 9.49871C121.62 9.59328 121.777 9.64998 121.941 9.66288L125.584 9.95181L122.584 12.6521C122.323 12.887 122.22 13.2484 122.315 13.5859L123.464 17.608L120.038 15.3231C119.887 15.2222 119.71 15.1683 119.529 15.1683C119.348 15.1683 119.171 15.2222 119.02 15.3231L115.439 17.7107L116.403 13.5409C116.438 13.3876 116.433 13.2277 116.389 13.0767C116.344 12.9257 116.262 12.7887 116.149 12.6787L113.363 9.9619L117.114 9.66288Z" fill="#F3CD03"/>
</g>
<defs>
<clipPath id="clip0_1_89">
<rect width="130.068" height="22.0136" fill="white" transform="translate(0.46582 0.493164)"/>
</clipPath>
</defs>
</svg>
