<svg width="20" height="19" viewBox="0 0 20 19" fill="none" xmlns="http://www.w3.org/2000/svg">
<path d="M5.03166 11.6377L3.66498 17.5557C3.62266 17.7349 3.63536 17.9227 3.70143 18.0945C3.7675 18.2664 3.88387 18.4143 4.03533 18.5191C4.18679 18.6238 4.36631 18.6804 4.55043 18.6814C4.73456 18.6825 4.91473 18.6281 5.06743 18.5252L10.0618 15.1956L15.0561 18.5252C15.2123 18.6289 15.3966 18.6823 15.5841 18.6782C15.7716 18.6741 15.9533 18.6127 16.1049 18.5022C16.2564 18.3917 16.3705 18.2375 16.4317 18.0602C16.493 17.883 16.4985 17.6912 16.4476 17.5107L14.7699 11.6404L18.9305 7.89628C19.0638 7.77629 19.1589 7.61988 19.2042 7.44638C19.2495 7.27289 19.243 7.08992 19.1854 6.9201C19.1278 6.75029 19.0217 6.60107 18.8802 6.49091C18.7388 6.38075 18.5681 6.31448 18.3893 6.30029L13.1602 5.88386L10.8974 0.874849C10.8252 0.713558 10.7079 0.576596 10.5597 0.480493C10.4114 0.38439 10.2385 0.333252 10.0618 0.333252C9.88508 0.333252 9.71216 0.38439 9.56388 0.480493C9.41561 0.576596 9.29832 0.713558 9.22617 0.874849L6.96335 5.88386L1.7342 6.29937C1.55851 6.31329 1.39055 6.37753 1.25041 6.48441C1.11027 6.59128 1.00389 6.73627 0.943998 6.90202C0.884102 7.06777 0.873228 7.24727 0.912676 7.41904C0.952123 7.59081 1.04022 7.74758 1.16643 7.87059L5.03166 11.6377ZM7.64853 7.66972C7.81225 7.65682 7.96948 7.60012 8.10375 7.50555C8.23802 7.41098 8.34437 7.28203 8.41166 7.13222L10.0618 3.48071L11.7119 7.13222C11.7792 7.28203 11.8855 7.41098 12.0198 7.50555C12.1541 7.60012 12.3113 7.65682 12.475 7.66972L16.1183 7.95865L13.118 10.659C12.8575 10.8938 12.7539 11.2552 12.8492 11.5927L13.9985 15.6148L10.5718 13.33C10.4213 13.229 10.2443 13.1751 10.0631 13.1751C9.882 13.1751 9.70495 13.229 9.55454 13.33L5.97366 15.7175L6.93675 11.5478C6.97207 11.3944 6.96733 11.2346 6.92299 11.0836C6.87865 10.9326 6.79621 10.7955 6.6836 10.6856L3.89704 7.96874L7.64853 7.66972Z" fill="#F3CD03"/>
</svg>
