<svg width="20" height="19" viewBox="0 0 20 19" fill="none" xmlns="http://www.w3.org/2000/svg">
<path d="M19.1706 6.91939C19.113 6.74958 19.0068 6.60037 18.8653 6.49018C18.7239 6.37999 18.5532 6.31365 18.3744 6.29934L13.1453 5.88383L10.8825 0.874819C10.8104 0.713489 10.6932 0.576463 10.545 0.480278C10.3968 0.384093 10.2239 0.332861 10.0472 0.332764C9.87048 0.332667 9.69754 0.383709 9.54921 0.479732C9.40088 0.575754 9.28352 0.712651 9.21128 0.873902L6.94846 5.88383L1.71931 6.29934C1.54362 6.31326 1.37566 6.3775 1.23552 6.48438C1.09538 6.59125 0.989 6.73624 0.929105 6.90199C0.86921 7.06774 0.858335 7.24724 0.897783 7.41901C0.937231 7.59078 1.02533 7.74755 1.15154 7.87056L5.01585 11.6376L3.64917 17.5556C3.60767 17.7348 3.62097 17.9222 3.68734 18.0937C3.75372 18.2652 3.8701 18.4128 4.02138 18.5173C4.17267 18.6218 4.35188 18.6785 4.53575 18.6799C4.71963 18.6813 4.89968 18.6274 5.05254 18.5252L10.0469 15.1956L15.0412 18.5252C15.1975 18.6289 15.3817 18.6823 15.5692 18.6782C15.7567 18.6741 15.9384 18.6126 16.09 18.5022C16.2415 18.3917 16.3556 18.2374 16.4169 18.0602C16.4781 17.8829 16.4836 17.6912 16.4327 17.5107L14.755 11.6404L18.9156 7.89625C19.188 7.65043 19.288 7.26702 19.1706 6.91939Z" fill="#F3CD03"/>
</svg>
